<svg width="1293" height="565" viewBox="0 0 1293 565" fill="none" xmlns="http://www.w3.org/2000/svg">
<path fill-rule="evenodd" clip-rule="evenodd" d="M1188.81 67C1189.59 63.2897 1190 59.4429 1190 55.5C1190 24.8482 1165.15 0 1134.5 0C1103.85 0 1079 24.8482 1079 55.5C1079 59.4429 1079.41 63.2897 1080.19 67H1078.84C1075.4 55.434 1064.68 47 1052 47C1046.17 47 1040.75 48.7822 1036.27 51.8316C1030.5 45.1951 1021.99 41 1012.5 41C996.979 41 984.08 52.2252 981.479 67H980.808C980.935 65.8508 981 64.683 981 63.5C981 46.103 966.897 32 949.5 32C932.103 32 918 46.103 918 63.5C918 64.683 918.065 65.8508 918.192 67H913.471C905.889 53.2864 891.279 44 874.5 44C866.512 44 859.016 46.1047 852.535 49.7899C848.052 48.6218 843.349 48 838.5 48C832.319 48 826.374 49.0104 820.821 50.875C820.939 49.7662 821 48.6402 821 47.5C821 30.103 806.897 16 789.5 16C772.455 16 758.572 29.5384 758.017 46.4488C753.024 41.8257 746.342 39 739 39C727.744 39 718.04 45.6415 713.591 55.2195C706.045 41.3856 691.368 32 674.5 32C666.812 32 659.58 33.9494 653.27 37.3808C647.569 29.2874 638.152 24 627.5 24C622.983 24 618.687 24.9509 614.803 26.6634C607.978 23.6645 600.433 22 592.5 22C570.783 22 551.98 34.473 542.863 52.6458C535.484 47.2113 526.367 44 516.5 44C508.296 44 500.611 46.2199 494.012 50.0919C488.975 39.4001 478.102 32 465.5 32C448.103 32 434 46.103 434 63.5C434 64.683 434.065 65.8508 434.192 67H432.31C422.136 55.3558 407.177 48 390.5 48C373.823 48 358.864 55.3558 348.69 67H334.681C332.497 51.7347 319.369 40 303.5 40C291.703 40 281.421 46.4844 276.024 56.0833C271.149 30.4108 248.591 11 221.5 11C192.995 11 169.509 32.4894 166.359 60.1515C160.595 52.7561 151.603 48 141.5 48C135.73 48 130.323 49.5511 125.673 52.2591C119.734 34.6666 103.096 22 83.5 22C58.9233 22 39 41.9233 39 66.5C39 66.6669 39.0009 66.8335 39.0028 67H39V103.337C17.0184 106.046 0 124.786 0 147.5C0 163.471 8.41311 177.476 21.0492 185.327C21.0165 185.88 21 186.438 21 187C21 197.615 26.9073 206.851 35.6139 211.599C30.8072 218.705 28 227.275 28 236.5C28 246.041 31.0026 254.881 36.1145 262.126C24.4898 265.531 16 276.274 16 289C16 302.757 25.9217 314.197 39 316.555V320.159C22.5924 326.714 11 342.753 11 361.5C11 376.107 18.0377 389.07 28.9073 397.184C20.3426 405.294 15 416.773 15 429.5C15 440.658 19.1069 450.858 25.8917 458.668C16.6527 468.581 11 481.88 11 496.5C11 527.152 35.8482 552 66.5 552C82.1943 552 96.3672 545.486 106.462 535.013C110.496 547.761 122.419 557 136.5 557C153.897 557 168 542.897 168 525.5C168 524.42 167.946 523.353 167.84 522.301C172.393 531.598 181.949 538 193 538C206.194 538 217.256 528.875 220.22 516.592C226.541 520.04 233.792 522 241.5 522C246.613 522 251.524 521.138 256.097 519.551C266.218 530.293 280.576 537 296.5 537C303.479 537 310.157 535.712 316.309 533.36C320.994 544.879 332.299 553 345.5 553C362.897 553 377 538.897 377 521.5C377 517.442 376.233 513.563 374.835 510H379.002C379.271 540.422 404.015 565 434.5 565C456.775 565 475.986 551.877 484.822 532.94C500.22 532.149 513.55 523.53 520.909 510.986C521.485 513.121 522.185 515.205 523.001 517.23C523 517.32 523 517.41 523 517.5C523 534.897 537.103 549 554.5 549C555.106 549 555.708 548.983 556.306 548.949C562.006 550.926 568.127 552 574.5 552C600.496 552 622.317 534.128 628.347 510H640.323C648.485 519.778 660.766 526 674.5 526C680.682 526 686.569 524.74 691.919 522.462C696.504 531.672 706.013 538 717 538C724.65 538 731.583 534.932 736.637 529.96C742.177 538.982 752.136 545 763.5 545C779.924 545 793.413 532.43 794.87 516.385C802.46 522.405 812.06 526 822.5 526C827.591 526 832.482 525.145 837.038 523.571C846.534 540.534 864.678 552 885.5 552C911.496 552 933.317 534.128 939.347 510H941.004C941.271 527.166 955.27 541 972.5 541C989.73 541 1003.73 527.166 1004 510H1004.32C1012.72 529.975 1032.47 544 1055.5 544C1074.45 544 1091.18 534.505 1101.19 520.013C1107.75 523.82 1115.37 526 1123.5 526C1134.23 526 1144.07 522.205 1151.75 515.883C1156.04 528.179 1167.74 537 1181.5 537C1197.37 537 1210.5 525.265 1212.68 510H1240.48C1245.42 514.357 1251.9 517 1259 517C1274.46 517 1287 504.464 1287 489C1287 473.698 1274.73 461.263 1259.48 461.004C1265.44 453.434 1269 443.882 1269 433.5C1269 419.766 1262.78 407.485 1253 399.323V395.682C1272.97 387.281 1287 367.529 1287 344.5C1287 327.608 1279.45 312.479 1267.55 302.3C1274.67 294.411 1279 283.962 1279 272.5C1279 256.522 1270.58 242.511 1257.93 234.663C1262.92 229.607 1266 222.663 1266 215C1266 205.054 1260.81 196.32 1253 191.353V174.807C1276.11 168.099 1293 146.772 1293 121.5C1293 96.228 1276.11 74.9011 1253 68.1933V67H1252.98C1252.99 66.6681 1253 66.3347 1253 66C1253 50.536 1240.46 38 1225 38C1209.54 38 1197 50.536 1197 66C1197 66.3347 1197.01 66.6681 1197.02 67H1188.81ZM165 510H163.929C164.345 510.735 164.732 511.488 165.09 512.258C165.03 511.513 165 510.76 165 510Z" fill="#BFD7ED" fill-opacity="0.26"/>
</svg>
