<svg width="380" height="497" viewBox="0 0 380 497" fill="none" xmlns="http://www.w3.org/2000/svg">
<path fill-rule="evenodd" clip-rule="evenodd" d="M363.611 0C355.987 0 349.602 6.33682 347.942 14.8434C345.544 7.82747 339.776 2.88379 333.042 2.88379C330.925 2.88379 328.904 3.37219 327.053 4.25983C324.292 1.59542 320.778 0 316.953 0C311.325 0 306.372 3.45325 303.497 8.68337C301.379 5.17065 297.926 2.88379 294.026 2.88379C289.859 2.88379 286.202 5.49545 284.139 9.42388C281.335 3.78166 276.185 0 270.295 0C262.436 0 255.893 6.73387 254.486 15.6368C251.751 13.0679 248.301 11.5358 244.553 11.5358C242.528 11.5358 240.59 11.9829 238.805 12.7989C236.592 5.34121 230.636 0 223.637 0C217.1 0 211.474 4.65854 208.956 11.349C207.94 4.88827 203.194 0 197.492 0C193.714 0 190.355 2.14678 188.224 5.47532C185.323 2.08779 181.355 0 176.979 0C172.115 0 167.755 2.57961 164.804 6.65651C162.753 2.66334 159.065 0 154.856 0C149.871 0 145.615 3.73829 143.946 8.99735C141.099 3.59189 136.061 0 130.321 0C123.704 0 118.021 4.77256 115.549 11.594C113.071 9.73006 110.137 8.65186 106.992 8.65186C103.847 8.65186 100.913 9.73012 98.4342 11.5942C95.9627 4.77263 90.2791 0 83.6627 0C76.7119 0 70.7905 5.26733 68.5414 12.644C65.825 10.1408 62.4205 8.65186 58.7249 8.65186C56.1034 8.65186 53.6284 9.40109 51.4415 10.7301C48.8167 4.37301 43.338 0 37.0047 0C29.5871 0 23.3419 5.99843 21.4807 14.1575C14.6634 16.4456 9.65365 24.089 9.65365 33.1656C9.65365 36.4765 10.3202 39.5967 11.498 42.3359C6.12127 45.5257 2.41348 52.2736 2.41348 60.0822C2.41347 68.6455 6.87261 75.9332 13.1019 78.6515C10.9423 82.006 9.65365 86.2408 9.65365 90.8443C9.65365 94.7845 10.5977 98.4547 12.2239 101.534C6.45786 104.53 2.41348 111.529 2.41348 119.684C2.41348 127.701 6.32222 134.601 11.9329 137.678C10.4856 140.708 9.65365 144.253 9.65365 148.042C9.65365 157.082 14.3883 164.733 20.9157 167.306V169.06C19.4024 171.492 18.5026 174.538 18.5026 177.844C18.5026 181.08 19.365 184.067 20.8211 186.473C14.3427 189.02 9.65365 196.46 9.65365 205.241C9.65365 213.644 13.9478 220.819 19.9951 223.653C19.0447 225.741 18.5026 228.15 18.5026 230.716C18.5026 234.021 19.4024 237.067 20.9157 239.499V244.115C14.3883 246.626 9.65365 254.096 9.65365 262.92C9.65365 265.513 10.0624 267.988 10.8053 270.256C4.51498 272.933 2.98023e-07 280.259 0 288.875C-2.98023e-07 298.368 5.47983 306.293 12.7763 308.164C10.8134 311.51 9.65365 315.644 9.65365 320.118C9.65365 328.5 13.725 335.689 19.5218 338.741C17.4014 341.352 16.0891 344.965 16.0891 348.958C16.0891 352.936 17.3926 356.539 19.5004 359.148C13.715 362.133 9.65365 369.144 9.65365 377.316C9.65365 380.031 10.1018 382.618 10.9124 384.971C8.61825 388.377 7.24017 392.743 7.24017 397.504C7.24017 406.869 12.5736 414.709 19.723 416.714C13.8195 419.633 9.65365 426.718 9.65365 434.995C9.65365 442.664 13.2301 449.31 18.4515 452.567C15.5026 456.052 13.6755 460.89 13.6755 466.238C13.6755 476.856 20.8788 485.464 29.7645 485.464C32.386 485.464 34.861 484.715 37.0479 483.386C39.6727 489.743 45.1514 494.116 51.4848 494.116C58.4357 494.116 64.3571 488.849 66.6062 481.472C69.3226 483.975 72.7271 485.464 76.4227 485.464C79.5675 485.464 82.5016 484.386 84.9802 482.522C87.4517 489.344 93.1353 494.116 99.7517 494.116C106.368 494.116 112.052 489.344 114.523 482.522C117.002 484.386 119.936 485.464 123.081 485.464C130.285 485.464 136.383 479.806 138.433 472.006H140.511C142.478 473.814 144.942 474.89 147.616 474.89C150.169 474.89 152.531 473.91 154.451 472.247C156.563 479.923 162.609 485.464 169.739 485.464C176.56 485.464 182.389 480.392 184.73 473.232C186.374 474.29 188.255 474.89 190.252 474.89C192.926 474.89 195.39 473.814 197.358 472.006H201.045C203.095 479.806 209.193 485.464 216.397 485.464C218.422 485.464 220.36 485.017 222.145 484.201C224.358 491.659 230.313 497 237.313 497C245.172 497 251.715 490.266 253.122 481.363C255.857 483.932 259.306 485.464 263.055 485.464C269.912 485.464 275.768 480.338 278.084 473.117C280.22 475.975 283.327 477.774 286.786 477.774C289.952 477.774 292.822 476.267 294.924 473.821C297.386 480.669 303.081 485.464 309.713 485.464C311.829 485.464 313.85 484.976 315.701 484.088C318.463 486.753 321.976 488.348 325.802 488.348C333.426 488.348 339.811 482.011 341.471 473.505C343.87 480.521 349.637 485.464 356.371 485.464C365.257 485.464 372.46 476.856 372.46 466.238C372.46 461.667 371.125 457.469 368.896 454.17C372.542 450.557 374.873 445.032 374.873 438.841C374.873 430.759 370.902 423.814 365.22 420.773V417.81C369.582 414.285 372.46 408.229 372.46 401.349C372.46 398.634 372.012 396.048 371.201 393.694C373.495 390.288 374.873 385.922 374.873 381.162C374.873 374.215 371.939 368.108 367.506 364.599C370.503 361.989 372.46 357.678 372.46 352.803C372.46 347.902 370.483 343.573 367.461 340.967C371.919 337.378 374.873 331.104 374.873 323.964C374.873 315.685 370.902 308.571 365.22 305.456V292.721V284.832C370.902 281.791 374.873 274.846 374.873 266.765C374.873 258.727 370.945 251.813 365.311 248.747C370.75 247.523 374.873 241.637 374.873 234.561C374.873 229.828 373.029 225.627 370.18 222.998C373.08 219.434 374.873 214.516 374.873 209.086C374.873 203.068 372.671 197.679 369.199 194.064C372.598 191.545 374.873 186.945 374.873 181.689C374.873 175.802 372.02 170.74 367.93 168.499C372.125 164.855 374.873 158.774 374.873 151.888C374.873 143.711 370.999 136.669 365.427 133.496C366.829 130.572 367.633 127.165 367.633 123.529C367.633 119.717 366.75 116.158 365.22 113.142V112.757C370.902 109.716 374.873 102.771 374.873 94.6896C374.873 86.6085 370.902 79.6635 365.22 76.6225V74.3139C366.75 71.2981 367.633 67.7391 367.633 63.9273C367.633 60.6163 366.967 57.4961 365.789 54.7569C371.166 51.567 374.873 44.8192 374.873 37.0107C374.873 35.7369 374.775 34.4914 374.586 33.285C377.733 29.7756 379.7 24.7755 379.7 19.2263C379.7 8.60791 372.497 0 363.611 0Z" fill="#CEDBE8" fill-opacity="0.5"/>
</svg>
