<svg width="177" height="91" viewBox="0 0 177 91" fill="none" xmlns="http://www.w3.org/2000/svg">
<path d="M73.3235 86.3189C90.4125 92.3914 107.977 91.4693 123.091 87.5428C137.985 83.6646 151.336 77.1109 162.142 68.3714C167.625 63.9326 172.617 58.7911 175.055 52.4036C177.319 46.4945 177.295 39.4915 173.72 32.8726C170.145 26.2537 163.827 21.2721 157.029 17.2454C149.026 12.5004 140.229 9.01248 131.354 6.52007C113.83 1.60295 95.6934 0.0803545 78.5956 0.39602C61.4979 0.711684 45.8307 3.14908 31.0242 7.61551C17.4083 11.7154 3.48293 18.29 0.599363 31.2865C-0.720903 37.2392 0.519387 43.9152 5.14107 49.8594C9.76276 55.8035 16.5188 60.0811 23.4344 63.5979C40.5227 72.2836 59.5417 77.0864 77.7903 79.5562C96.0389 82.0259 115.577 82.1807 134.051 81.7195C138.526 81.6114 142.986 81.4584 147.445 81.3134C148.008 81.2979 149.055 81.0165 148.62 80.353C148.185 79.6896 146.722 79.6402 146.107 79.6585C128.591 80.2082 111.007 80.7318 93.0557 79.4381C75.1043 78.1444 57.244 75.0395 39.8654 68.5221C25.8454 63.2659 8.24265 54.9281 4.71976 41.2688C3.10795 35.0194 4.59267 28.9789 7.91808 24.1768C11.4325 19.0968 17.1376 15.4702 23.3149 12.7708C29.4922 10.0714 36.7451 7.97479 43.8971 6.34314C51.0491 4.71149 58.7617 3.48141 66.5173 2.78702C82.1324 1.38459 98.595 1.87665 115.039 4.64949C123.77 6.12092 132.568 8.33912 141.012 11.7176C148.68 14.7852 156.34 18.7845 162.492 24.0994C168.471 29.254 172.144 35.5135 172.683 42.0049C173.223 48.4964 170.651 54.734 166.65 59.7105C162.562 64.8034 157.082 69.0547 151.351 72.8055C145.62 76.5563 139.428 79.686 132.756 82.2633C119.518 87.3885 103.938 90.8075 87.613 88.3034C83.6287 87.6968 79.6214 86.7154 75.7276 85.3297C74.8779 85.0323 73.8271 84.8703 73.11 85.2059C72.5772 85.4588 72.5133 86.0319 73.3235 86.3189Z" fill="#FF9636"/>
</svg>
