<svg width="13" height="16" viewBox="0 0 13 16" fill="none" xmlns="http://www.w3.org/2000/svg">
<path fill-rule="evenodd" clip-rule="evenodd" d="M3.0852 13.982L1.3182 14.882C1.24952 14.9162 1.16799 14.9121 1.10305 14.8713C1.03811 14.8304 0.99914 14.7587 1.0002 14.682V1.955C0.989597 1.4384 1.39961 1.01093 1.9162 1H11.0832C11.5998 1.01093 12.0098 1.4384 11.9992 1.955V14.682C12.0003 14.7587 11.9613 14.8304 11.8963 14.8713C11.8314 14.9121 11.7499 14.9162 11.6812 14.882L9.9142 13.982C9.84383 13.9461 9.75945 13.9514 9.6942 13.996L8.2722 14.962C8.19857 15.0121 8.10183 15.0121 8.0282 14.962L6.6222 14.007C6.54857 13.9569 6.45183 13.9569 6.3782 14.007L4.9722 14.962C4.89857 15.0121 4.80183 15.0121 4.7282 14.962L3.3052 14C3.2407 13.9542 3.1563 13.9472 3.0852 13.982Z" stroke="#FF8300" stroke-linecap="round" stroke-linejoin="round"/>
<path d="M3.99902 9.5C3.72288 9.5 3.49902 9.72386 3.49902 10C3.49902 10.2761 3.72288 10.5 3.99902 10.5V9.5ZM8.91302 10.5C9.18917 10.5 9.41302 10.2761 9.41302 10C9.41302 9.72386 9.18917 9.5 8.91302 9.5V10.5ZM4.85258 6.14645C4.65731 5.95118 4.34073 5.95118 4.14547 6.14645C3.95021 6.34171 3.95021 6.65829 4.14547 6.85355L4.85258 6.14645ZM5.49902 7.5L5.14547 7.85355C5.34073 8.04882 5.65731 8.04882 5.85258 7.85355L5.49902 7.5ZM8.85258 4.85355C9.04784 4.65829 9.04784 4.34171 8.85258 4.14645C8.65731 3.95118 8.34073 3.95118 8.14547 4.14645L8.85258 4.85355ZM3.99902 10.5H8.91302V9.5H3.99902V10.5ZM4.14547 6.85355L5.14547 7.85355L5.85258 7.14645L4.85258 6.14645L4.14547 6.85355ZM5.85258 7.85355L8.85258 4.85355L8.14547 4.14645L5.14547 7.14645L5.85258 7.85355Z" fill="#FF8300"/>
</svg>
